# xmcd
#
# Track frame offsets:
#  150
#  19169
#  31381
#  51689
#  71725
#  91846
#  110868
#  128500
#  141008
#  156013
#  176387
#  193836
#  211556
#  229128
#  242351
#  259384
#  276539
#  295170
#  309611
#  320990
#
# Disc length: 4447 seconds
#
# Revision: 0
# Processed by: cddbd v1.4PL0 Copyright (c) Steve Scherf et al.
# Submitted via: AltoMP3_Maker 3.0
#
DISCID=30115d14
DTITLE=任贤齐等 - 伤心雨（2）
DYEAR=1900
DGENRE=
TTITLE0=单身情歌
TTITLE1=有多少爱可以重来
TTITLE2=流着泪的你的眼
TTITLE3=最美
TTITLE4=爱一个人好难
TTITLE5=至少还有你
TTITLE6=不管有多苦
TTITLE7=天长地久
TTITLE8=白桦林
TTITLE9=为什么你背着我爱别人
TTITLE10=因为爱所以爱
TTITLE11=爱的代价
TTITLE12=容易受伤的女人
TTITLE13=月亮惹的祸
TTITLE14=信仰
TTITLE15=再回到从前
TTITLE16=多情人都把灵魂给了谁
TTITLE17=缘
TTITLE18=当
TTITLE19=梦醒时分
EXTD=
EXTT0=
EXTT1=
EXTT2=
EXTT3=
EXTT4=
EXTT5=
EXTT6=
EXTT7=
EXTT8=
EXTT9=
EXTT10=
EXTT11=
EXTT12=
EXTT13=
EXTT14=
EXTT15=
EXTT16=
EXTT17=
EXTT18=
EXTT19=
PLAYORDER=
